<svg xmlns="http://www.w3.org/2000/svg" xmlns:xlink="http://www.w3.org/1999/xlink" version="1.1" x="0px" y="0px" viewBox="0 0 100 125" enable-background="new 0 0 100 100" xml:space="preserve"><path d="M20.8,50.1c-0.2-10.7,5.5-20.6,14.8-25.8c6.8-3.8,14.6-4.8,22.1-2.7c5.7,1.6,10.6,4.8,14.3,9.1l1.1-5.9  c0.2-1.2,1.4-2,2.6-1.8c1.2,0.2,2,1.4,1.8,2.6l-2.1,11.2c0,0,0,0.1,0,0.1l0,0.1c-0.2,1-1.2,1.7-2.2,1.7c-0.1,0-0.3,0-0.4,0  l-11.3-2.1c-1.2-0.2-2-1.4-1.8-2.6c0.2-1.2,1.4-2,2.6-1.8l6,1.1c-3.1-3.5-7.2-6.1-11.9-7.4c-6.3-1.8-13-0.9-18.7,2.3  c-7.2,4.1-11.8,11.5-12.4,19.6l15.7,0c1-3.9,4.5-6.8,8.7-6.8c1.2,0,2.2,1,2.2,2.2s-1,2.2-2.2,2.2c-2.5,0-4.5,2-4.5,4.5  c0,2.5,2,4.5,4.5,4.5c2.5,0,4.5-2,4.5-4.5c0-1.2,1-2.2,2.2-2.2c0.2,0,0.3,0,0.4,0l20,0c0,0,0,0,0,0c1.2,0,2.2,1,2.2,2.2  c0.2,10.7-5.5,20.6-14.8,25.8c-4.5,2.5-9.4,3.8-14.3,3.8c-8.3,0-16.5-3.6-22.1-10.1l-0.8,5.8c-0.1,1.1-1.1,1.9-2.2,1.9  c-0.1,0-0.2,0-0.3,0c-1.2-0.2-2.1-1.3-1.9-2.5l1.5-11.4c0.2-1.2,1.3-2.1,2.5-1.9l11.4,1.5c1.2,0.2,2.1,1.3,1.9,2.5s-1.3,2.1-2.5,1.9  l-6.3-0.8c3.2,3.7,7.3,6.4,12.1,7.7c6.3,1.8,13,0.9,18.7-2.3c7.2-4.1,11.8-11.5,12.4-19.6l-16.2,0c-1,3.9-4.5,6.7-8.7,6.7  c-4.2,0-7.7-2.9-8.7-6.7l-18.1,0c0,0,0,0,0,0C21.8,52.3,20.8,51.3,20.8,50.1z"/><text x="0" y="115" fill="#000000" font-size="5px" font-weight="bold" font-family="'Helvetica Neue', Helvetica, Arial-Unicode, Arial, Sans-serif">Created by Gregor Črešnar</text><text x="0" y="120" fill="#000000" font-size="5px" font-weight="bold" font-family="'Helvetica Neue', Helvetica, Arial-Unicode, Arial, Sans-serif">from the Noun Project</text></svg>